<svg xmlns="http://www.w3.org/2000/svg" viewBox="-759 1307 118.206 42.999">
  <defs>
    <style>
      .cls-1 {
        fill: #39d18c;
      }
    </style>
  </defs>
  <path id="Exclusion_2" data-name="Exclusion 2" class="cls-1" d="M-2283.794,138H-2402V95h118.206Zm-46.286-27.239a6.246,6.246,0,0,0-2.369.46,6.022,6.022,0,0,0-2,1.33,6.446,6.446,0,0,0-1.391,2.139,7.675,7.675,0,0,0-.52,2.911,7.839,7.839,0,0,0,.5,2.91,5.96,5.96,0,0,0,1.35,2.08,5.5,5.5,0,0,0,1.98,1.24,6.917,6.917,0,0,0,2.37.41,5.783,5.783,0,0,0,2.35-.48,5.506,5.506,0,0,0,1.931-1.44l-1.8-2.16a4.021,4.021,0,0,1-1.01.79,2.734,2.734,0,0,1-1.35.33,2.468,2.468,0,0,1-2.03-.98,4.5,4.5,0,0,1-.77-2.821,5.071,5.071,0,0,1,.229-1.579,3.654,3.654,0,0,1,.62-1.18,2.8,2.8,0,0,1,.9-.741,2.385,2.385,0,0,1,1.09-.259,2.477,2.477,0,0,1,1.17.27,5.215,5.215,0,0,1,.99.689l1.8-2.2a6.56,6.56,0,0,0-1.72-1.21A5.147,5.147,0,0,0-2330.08,110.76ZM-2381.4,111v6.72a7.624,7.624,0,0,0,1.33,4.93,5.027,5.027,0,0,0,4.07,1.589,4.911,4.911,0,0,0,4.02-1.589,7.752,7.752,0,0,0,1.3-4.93V111H-2374v7.12a4.535,4.535,0,0,1-.49,2.451,1.716,1.716,0,0,1-1.51.71,1.663,1.663,0,0,1-1.49-.71,4.687,4.687,0,0,1-.471-2.451V111Zm80.04,0v2.88h3.441V124h3.44V113.88h3.44V111Zm-10.16,0v13h8.6v-2.88h-5.16V118.8h4.24v-2.88h-4.24v-2.04h4.96V111Zm-7.88,8h0l2.879,5h3.76l-4.64-7.72,3.88-5.28h-3.76l-3.28,4.84-.08-4.84h-3.44v13h3.44v-3.24l1.24-1.759Zm-22.719-8v13h3.441V111Zm-12.24,0v2.88h3.441V124h3.44V113.88h3.44V111Zm-15.56,0,3.919,8.52V124h3.44v-4.48l3.92-8.52h-3.6l-.96,2.721-.51,1.44q-.251.7-.51,1.46l-.281-.585-.3-.875q-.239-.7-.48-1.44l-.959-2.721Zm-23.639,0v13h5.08a8.7,8.7,0,0,0,1.98-.221,4.837,4.837,0,0,0,1.63-.689,3.525,3.525,0,0,0,1.1-1.2,3.485,3.485,0,0,0,.409-1.73,2.954,2.954,0,0,0-.65-2.03,3.4,3.4,0,0,0-1.59-1.011,4.568,4.568,0,0,0,.68-.519,2.991,2.991,0,0,0,.51-.69,4.044,4.044,0,0,0,.329-.82,3.166,3.166,0,0,0,.121-.851,2.981,2.981,0,0,0-.391-1.589,2.779,2.779,0,0,0-1.049-.99,4.95,4.95,0,0,0-1.561-.51,11.73,11.73,0,0,0-1.92-.15Zm4.839,10.36h-1.4V118.6h1.4a2.985,2.985,0,0,1,1.51.3,1.1,1.1,0,0,1,.49,1.02C-2386.72,120.875-2387.393,121.36-2388.72,121.36Zm-.24-5.279h-1.16v-2.44h1.16a2.328,2.328,0,0,1,1.24.26.95.95,0,0,1,.4.859,1.235,1.235,0,0,1-.4.96A1.822,1.822,0,0,1-2388.96,116.08Z" transform="translate(1643 1212)"/>
</svg>
