<?xml version="1.0" encoding="utf-8"?>
<!-- Generator: Adobe Illustrator 22.0.0, SVG Export Plug-In . SVG Version: 6.00 Build 0)  -->
<svg version="1.1" id="Lag_1" xmlns="http://www.w3.org/2000/svg" xmlns:xlink="http://www.w3.org/1999/xlink" x="0px" y="0px"
	 viewBox="0 0 289.8 105.3" style="enable-background:new 0 0 289.8 105.3;" xml:space="preserve">
<style type="text/css">
	.st0{fill:#FFFFFF;}
</style>
<path class="st0" d="M271,37.7C271,37.7,271,37.7,271,37.7c-0.1-9.3-7.7-16.7-17-16.6c-9.2,0.1-16.3,7.4-16.5,17v3.4
	c-8.5-3.8-15.9-2.7-22.6,4.7V11c0-3.9-1.2-5.6-3.9-5.7c-2.8-0.1-4.1,1.8-4.1,5.8v25.6c-2.4-0.6-4.4-2-6.7-1.9
	c-2.2,0.1-3-0.8-3.8-2.9c-0.3-0.9-0.8-1.8-1.3-2.7c-4.7-7.9-14.9-10.5-22.8-5.9c-4.7,2.8-7.2,7.1-8.4,12.4
	c-6.2-3.1-12.1-3.2-17.8,0.4c-3.8,2.3-4.8,4.7-3.4,7.1s3.4,2.3,7.5-0.3c2.7-1.9,6.3-2,9.1-0.3c2.4,1.4,4.2,3.3,4.1,6.6
	c-10.1-4.4-17.8-1.5-24,7.6c0-5.2,0.1-9.7,0-14.2c-0.2-7.1-4.9-13.4-11.7-15.5c-8.8-2.8-18.2,2.1-21,10.9c-0.4,1.3-0.7,2.6-1,4.1
	c-4.7-2.8-9.5-3.7-14.6-2.3C86,41.3,82.7,45,79.8,50V24.5c0-4.7-1.2-6.7-4-6.6c-2.8,0.1-3.9,2-3.9,6.8c0,7.4,0,14.9,0,22.3
	c0,0.9,0.5,2.8-1.6,1.9c-4.5-2.1-9.2-2-14.2-0.2c2.9-6.1,3.5-9.1,2.6-13C57,27.2,49.3,21.2,41.2,22c-8.9,0.8-15.5,7.7-15.6,16.6
	c-0.1,8.5,0,16.9-0.1,25.4c0.1,4.7-3.6,8.6-8.3,8.8c-5,0.2-9-3.1-9.1-8.2c-0.2-16-0.2-32,0-48c0-4.6,3.7-8.3,8.3-8.4
	c4.7-0.2,8.4,3.1,9.1,8c0.5,3.5,2.1,5.1,4.6,4.7c2.5-0.4,3.8-2.6,3.3-5.8C32.2,6.1,24.7-0.4,16.2,0C7.1,0.3,0,7.7,0,16.8
	c-0.1,15.8,0,31.6,0,47.4c0,1.2,0.1,2.5,0.4,3.7c1.9,8.1,9.5,13.6,17.8,12.9c8.5-0.8,14.9-7.7,15.2-16.6c0.1-3.5,0-7,0-11
	c5.1,2.9,10.1,2.7,15.4,1.4c-4.7,10.9-1.9,20.4,6.9,24.6c4.5,2.2,9.7,2.3,14.3,0.1c4.6-2.1,7.5-5.8,9.3-10.9
	c0.7,1.5,1.1,2.5,1.7,3.5c5.1,9.7,18.4,12,26.1,4.6c1.9-1.8,2.6-3.9,0.8-6c-1.7-2-3.8-1.8-5.8-0.2c-0.6,0.5-1.2,1-1.9,1.4
	c-0.4,0.2-0.9,0.4-1.3,0.6c-4.6,1.6-9.7-0.8-11.3-5.4c-0.7-1.9-0.5-3,2-2.9c5.3,0.1,10.5,0,15.8,0c6.5,0,6.9-0.3,7.6-6.9
	c5.5,3.2,11.1,4,17.1,1.4c2.1-0.9,1.5,1.1,1.5,2c0,9.2,0.1,18.3,0,27.5c0,5.4-3.6,9.2-8.4,9.4c-4.8,0.2-8.4-3.1-9.1-8.4
	c-0.3-2.7-1.6-4.3-4.3-4.3c-2.4,0-4,2.3-3.7,5.2c0.7,8.3,7.3,14.9,15.7,15.5c7.7,0.7,15-4.6,17.3-12.3c0.7-2.5,0.6-5,0.6-7.5
	c0-4.6,0-9.2,0-14.4c0.7,1,1,1.2,1.2,1.5c4.8,7.1,12.1,9.8,19.6,7.5c7.2-2.3,11.6-8.7,11.6-17.2c0-7.7,0-15.3,0-23
	c0-1.5,0.1-3,0.5-4.4c0.7-3.2,3.4-5.7,6.7-6.2c3.5-0.8,7.1,0.7,9,3.7c1.4,2,1.9,3.6-0.7,5.7c-0.2,0.1-0.3,0.3-0.5,0.4
	c-6.8,6-7.4,16.4-1.4,23.1c6.1,7,16.6,7.8,23.7,1.8c0.8-0.7,1.2-2,2.7-1.7c0.1,1.2,0.2,2.3,0.3,3.4c0.4,5.5,3.6,10.4,8.5,12.9
	c6.3,3.6,14.9,2.5,19.7-2.5c1.8-1.8,2.2-3.8,0.4-5.8c-1.6-1.8-3.6-1.8-5.5-0.4c-0.6,0.5-1.2,1-1.9,1.5c-0.5,0.3-1.1,0.6-1.7,0.8
	c-4.6,1.5-9.6-0.9-11.1-5.5c-0.7-2.1-0.4-2.9,2-2.9c4.7,0.1,9.4,0,14.1,0c9,0,9,0,9-8.9c0-5.4-0.1-10.8,0-16.1
	c0.1-6,3.5-9.7,8.7-9.8c5.4,0,8.8,3.8,8.8,9.9c0,8,0,16,0,24c0,2.8,1,4.9,4,4.9c3,0,4-2.1,4-4.9C271,54.6,271.2,46.2,271,37.7z
	 M48.4,45c-1.6,1.6-3.9,2.5-6.2,2.5c-4.8,0-8.6-4-8.6-8.8c0-4.8,4-8.6,8.8-8.6s8.6,4,8.6,8.8C51,41.2,50.1,43.4,48.4,45z M63.2,72.8
	c-4.8,0-8.7-3.9-8.7-8.7v0c0-4.8,3.9-8.8,8.8-8.7c4.8,0,8.8,3.9,8.7,8.8S68,72.8,63.2,72.8z M102.6,56c-2.2-0.1-4.3,0-6.5,0l0,0
	c-2.4,0-4.8-0.1-7.2,0c-1.7,0.1-1.9-0.7-1.6-2.1c0.7-3.6,4.6-6.7,8.5-6.7c3.9,0,7.9,3,8.6,6.6C104.7,55.3,104.5,56.1,102.6,56z
	 M131.5,43.4c0,4.8-3.9,8.6-8.7,8.6c0,0-0.1,0-0.1,0c-4.8,0-8.7-4-8.7-8.8c0-4.8,4-8.7,8.8-8.7C127.6,34.5,131.5,38.5,131.5,43.4
	C131.5,43.3,131.5,43.4,131.5,43.4z M155.1,72.7C155.1,72.7,155.1,72.7,155.1,72.7c-4.8,0-8.8-3.8-8.8-8.6c0-4.8,3.8-8.7,8.6-8.8
	c4.8-0.1,8.7,3.8,8.8,8.6S159.9,72.6,155.1,72.7z M197.9,60c-4.8,0-8.7-4-8.7-8.8c0-4.8,4-8.7,8.8-8.7c0,0,0,0,0,0
	c4.8,0,8.7,4,8.7,8.8C206.7,56.1,202.7,60,197.9,60z M235.6,56c-2.3-0.1-4.6,0-6.9,0h0c-2.2,0-4.6-0.1-6.8,0
	c-2.1,0.1-2.2-0.7-1.7-2.4c0.8-3.1,3.3-5.4,6.3-6.2c4.7-1.2,9.5,1.7,10.6,6.4C237.6,55.3,237.5,56.1,235.6,56z"/>
<path id="Path_20" class="st0" d="M289.8,76.8c0,5-4,9.1-9.1,9.2c-5.2,0-9.4-4.1-9.4-9.3c0-5.1,4.2-9.2,9.3-9.1c0.1,0,0.2,0,0.2,0
	c5,0,9,4,9,9C289.8,76.7,289.8,76.7,289.8,76.8L289.8,76.8z"/>
</svg>
