<?xml version="1.0" encoding="utf-8"?>
<!-- Generator: Adobe Illustrator 22.0.0, SVG Export Plug-In . SVG Version: 6.00 Build 0)  -->
<svg version="1.1" id="Capa_1" xmlns="http://www.w3.org/2000/svg" xmlns:xlink="http://www.w3.org/1999/xlink" x="0px" y="0px"
	 viewBox="0 0 20 32.5" style="enable-background:new 0 0 20 32.5;" xml:space="preserve" width="30px" height="42px">
<style type="text/css">
	.st0{fill:#3B3B3B;}
	.st1{fill:#EAEAEA;}
	.st2{display:none;}
	.st3{display:inline;fill:#3B3B3B;}
</style>
<title>map icon fyldt rød (mini)</title>
<path class="st0" d="M10,0.2c-5.4,0-9.8,4.5-9.7,10c0,1.5,0.3,2.9,0.9,4.3L10,32.2l8.7-17.4c2.4-4.9,0.5-11-4.3-13.5
	C13,0.6,11.5,0.3,10,0.2z"/>
<ellipse class="st1" cx="10" cy="10.3" rx="8.9" ry="9.1"/>
<g class="st2">
	<path class="st3" d="M9.6,3.2c0.2,0,0.4,0,0.7,0.1c0.7,0.3,1.4,0.6,2,1c0.9,0.5,1.1,1.8,0.4,2.6c-0.2,0.2-0.2,0.3,0,0.5
		c0.6,0.8,0.6,1.8,0,2.6c-0.6,0.8-1.6,1.1-2.5,0.7c-0.2-0.1-0.4-0.1-0.6,0c-0.7,0.3-1.6,0.1-2-0.6C7.4,9.9,7.3,9.8,7.1,9.8
		C6.2,9.5,5.7,8.9,5.5,8C5.4,7.1,5.8,6.3,6.6,5.8C6.8,5.7,6.9,5.7,7,5.4C7.2,4.1,8.2,3.2,9.6,3.2z"/>
	<path class="st3" d="M15.9,9.4c-0.1,0-0.1,0-0.2,0c-0.6-0.2-1.1-0.2-1.7,0c-0.2,0.1-0.4,0-0.3-0.3c0.1-0.6,0-1.1-0.2-1.6
		c-0.1-0.2-0.1-0.3,0-0.5c0.6-1.3,0.2-2.8-1.1-3.4c-0.3-0.2-0.3-0.3-0.1-0.5c0.8-1.2,2.5-1.6,3.7-0.7c0.2,0.2,0.4,0.3,0.7,0.3
		c1.3,0.3,1.8,1.8,1,2.9c-0.2,0.2-0.2,0.3,0,0.5c0.5,0.7,0.6,1.5,0.2,2.2C17.4,9,16.7,9.4,15.9,9.4z"/>
	<path class="st3" d="M7.6,3.1c-0.7,0.5-1.1,1.2-1.3,2c0,0.1-0.1,0.2-0.2,0.2C4.4,6.6,4.3,8.5,5.8,9.9c0,0,0,0,0,0.1
		C5.3,10.3,4.4,9.9,4,9.4C3.9,9.2,3.8,9.1,3.5,9.1C2.7,8.9,2.1,8.1,2,7.2C1.9,6.4,2.3,5.5,3.1,5.1C3.3,5,3.4,4.9,3.4,4.7
		C3.8,2.7,6.1,1.9,7.6,3.1z"/>
	<path class="st3" d="M7.2,11.8c0,0.3,0,0.5,0,0.8c0,0.2,0,0.3-0.3,0.3c-0.5,0-1,0-1.6,0c-0.2,0-0.3-0.1-0.3-0.3c0-0.6,0-1.1,0-1.7
		c0-0.2,0-0.2,0.2-0.2c0.5,0.1,0.9-0.1,1.4-0.2c0.3-0.1,0.5,0,0.5,0.4C7.2,11.2,7.2,11.5,7.2,11.8z"/>
	<path class="st3" d="M9.6,13.7c-1,0-1,0-1-1c0-0.3-0.1-0.7,0-1c0.1-0.3,0.6,0,0.9-0.1c0.2-0.1,0.5-0.1,0.7-0.1
		c0.4,0.1,0.5,0.2,0.5,0.6c0,0.5,0,0.9,0,1.4c0,0.2,0,0.3-0.2,0.2C10.2,13.6,9.9,13.7,9.6,13.7z"/>
	<path class="st3" d="M15.7,11.3c0,0.3,0.1,0.7-0.1,0.9c-0.2,0.2-0.6,0.1-1,0.1c-0.3,0-0.8,0.2-1-0.1c-0.2-0.2,0-0.7-0.1-1
		c0-0.3-0.1-0.7,0-1c0.1-0.3,0.6,0,0.9-0.1c0.2-0.1,0.3-0.1,0.5-0.1c0.7,0.1,0.7,0.1,0.7,0.8C15.7,10.9,15.7,11,15.7,11.3z"/>
</g>
<path class="st0" d="M4.7,5C4.7,5,4.7,5.1,4.7,5c0.4,0.5,0.7,0.9,1.1,1.3c1.2,1.5,2.4,3,3.7,4.5c0.1,0.1,0.1,0.1,0.1,0.2
	c0,0.3,0,0.6,0,0.9c0,0.7,0,1.3,0,2c0,0.1,0,0.1-0.1,0.1c-0.2,0-0.4,0-0.6,0.1c-0.5,0.1-0.9,0.3-1.4,0.6c-0.2,0.2-0.4,0.4-0.4,0.6
	c0,0.1,0,0.2,0.1,0.2c1.9,0,3.8,0,5.7,0c0.1,0,0.1,0,0.1-0.1c0,0,0,0,0,0c-0.1-0.3-0.3-0.5-0.6-0.7c-0.5-0.3-1.1-0.5-1.8-0.6
	c-0.1,0-0.1,0-0.1-0.1c0-0.9,0-1.9,0-2.8c0-0.1,0-0.2,0.1-0.3c1.4-1.8,2.9-3.6,4.3-5.3c0.1-0.2,0.2-0.3,0.4-0.5c0,0,0,0,0,0
	C11.8,5,8.2,5,4.7,5z M10.2,8.5C9.9,8.5,9.7,8.2,9.7,8c0-0.3,0.2-0.5,0.5-0.5c0.3,0,0.5,0.2,0.5,0.5C10.7,8.2,10.5,8.5,10.2,8.5z
	 M13,6.4C13,6.4,13,6.4,13,6.4c-0.8,0.2-1.6,0.3-2.4,0.4C9.7,7,8.8,7.2,7.9,7.3c-0.1,0-0.2,0-0.2-0.1C7.3,6.8,6.9,6.4,6.6,5.9
	c2.3,0,4.6,0,6.9,0C13.3,6.1,13.2,6.3,13,6.4z"/>
</svg>
