<?xml version="1.0" encoding="utf-8"?>
<!-- Generator: Adobe Illustrator 22.0.0, SVG Export Plug-In . SVG Version: 6.00 Build 0)  -->
<svg version="1.1" id="Capa_1" xmlns="http://www.w3.org/2000/svg" xmlns:xlink="http://www.w3.org/1999/xlink" x="0px" y="0px"
	 viewBox="0 0 20 32.5" style="enable-background:new 0 0 20 32.5;" xml:space="preserve" width="30px" height="42px">
<style type="text/css">
	.st0{fill:#3B3B3B;}
	.st1{fill:#EAEAEA;}
	.st2{fill:#393939;}
</style>
<title>map icon fyldt rød (mini)</title>
<path class="st0" d="M10,0.2c-5.4,0-9.8,4.5-9.7,10c0,1.5,0.3,2.9,0.9,4.3L10,32.2l8.7-17.4c2.4-4.9,0.5-11-4.3-13.5
	C13,0.6,11.5,0.3,10,0.2z"/>
<ellipse class="st1" cx="10" cy="10.3" rx="8.9" ry="9.1"/>
<path class="st2" d="M198.3-185c0.3,2.3-0.4,4.4-1.8,6.2c0-1.3,0-2.7,0-4C197.1-183.5,197.7-184.2,198.3-185z"/>
<g>
	<path class="st0" d="M2.6,9.7c0.1-0.2,0.3-0.3,0.5-0.4c0.1,0,0.2,0,0.3,0c1.3,0,2.5,0,3.8,0c0.3,0,0.5,0.1,0.7,0.2
		c0.3,0.2,0.6,0.3,1,0.4c0.1,0,0.2,0.1,0.2,0.2c0.3,0.5,0.6,1.1,0.9,1.6c0,0,0,0,0,0.1c0.1,0.1,0,0.2-0.1,0.2c-1.6,0-3.1,0-4.7,0
		c-0.6,0-1.2-0.2-1.7-0.6C3.3,11,3,10.7,2.8,10.4c-0.1-0.1-0.2-0.3-0.2-0.4c0-0.1,0-0.1,0-0.2C2.5,9.8,2.6,9.7,2.6,9.7z"/>
	<path class="st0" d="M10.5,10c0.2,0,0.4-0.1,0.6-0.1c0.4-0.1,0.7-0.2,1-0.4c0.2-0.1,0.4-0.2,0.6-0.2c1.3,0,2.6,0,4,0
		c0.2,0,0.4,0,0.6,0.1c0.3,0.2,0.3,0.5,0.2,0.7c-0.2,0.3-0.5,0.6-0.7,0.8c-0.4,0.4-0.9,0.7-1.5,0.8c-0.2,0-0.3,0-0.5,0
		c-0.8,0-1.5,0-2.3,0c-0.1,0-0.1,0-0.2-0.1c-0.2-0.2-0.3-0.3-0.6-0.4c-0.2-0.1-0.4-0.3-0.5-0.5C10.9,10.6,10.7,10.3,10.5,10z"/>
	<path class="st0" d="M10.6,12.4c0-0.2,0-0.3,0-0.5c0-0.2,0-0.4-0.1-0.5c-0.4-0.6-0.7-1.3-1.1-1.9C9,8.8,8.6,8.1,8.1,7.3
		C7.9,6.9,7.7,6.5,7.4,6.1C7.4,6.1,7.4,6,7.3,6C7.2,6,7.1,5.8,7.1,5.7c0-0.1,0.1-0.3,0.2-0.3c0.2,0,0.3,0,0.4,0.1c0,0,0.1,0.1,0,0.1
		C7.8,5.9,7.9,6,8,6.1c0.4,0.7,0.9,1.5,1.3,2.2c0.4,0.7,0.8,1.4,1.3,2.2c0.2,0.3,0.3,0.6,0.5,0.8c0,0.1,0.1,0.1,0.2,0.2
		c0.3,0.2,0.5,0.3,0.7,0.5c0.2,0.2,0.3,0.4,0.4,0.7c0.3,0.4,0.5,0.8,0.8,1.3c0.2,0.3,0.2,0.5-0.1,0.8c-0.2,0.2-0.5,0.4-0.8,0.4
		c-0.2,0-0.4-0.1-0.5-0.2c-0.4-0.5-0.6-1-0.9-1.5C10.7,13.1,10.6,12.8,10.6,12.4C10.6,12.5,10.6,12.5,10.6,12.4z"/>
</g>
</svg>
