<?xml version="1.0" encoding="utf-8"?>
<!-- Generator: Adobe Illustrator 22.0.0, SVG Export Plug-In . SVG Version: 6.00 Build 0)  -->
<svg version="1.1" id="Capa_1" xmlns="http://www.w3.org/2000/svg" xmlns:xlink="http://www.w3.org/1999/xlink" x="0px" y="0px"
	 viewBox="0 0 20 32.5" style="enable-background:new 0 0 20 32.5;" xml:space="preserve" width="30px" height="42px">
<style type="text/css">
	.st0{fill:#3B3B3B;}
	.st1{fill:#EAEAEA;}
	.st2{fill:#393939;}
</style>
<title>map icon fyldt rød (mini)</title>
<path class="st0" d="M10,0.2c-5.4,0-9.8,4.5-9.7,10c0,1.5,0.3,2.9,0.9,4.3L10,32.2l8.7-17.4c2.4-4.9,0.5-11-4.3-13.5
	C13,0.6,11.5,0.3,10,0.2z"/>
<ellipse class="st1" cx="10" cy="10.3" rx="8.9" ry="9.1"/>
<path class="st2" d="M198.3-185c0.3,2.3-0.4,4.4-1.8,6.2c0-1.3,0-2.7,0-4C197.1-183.5,197.7-184.2,198.3-185z"/>
<g>
	<path class="st0" d="M10.8,6.7c0,0.2-0.1,0.3-0.2,0.5c-0.3,0.3-0.3,0.4-0.1,0.7c0,0.1,0.1,0.1,0,0.2c-0.1,0.1-0.1,0-0.2,0
		c-0.3-0.3-0.3-0.6,0-0.9c0,0,0.1-0.1,0.1-0.1c0.2-0.3,0.2-0.3,0-0.7c0-0.1-0.1-0.1,0-0.2c0.1-0.1,0.2,0,0.2,0.1
		C10.7,6.3,10.8,6.5,10.8,6.7z"/>
	<path class="st0" d="M11.7,6.6c0,0.2-0.1,0.4-0.2,0.5c-0.2,0.3-0.3,0.4-0.1,0.7c0,0.1,0.1,0.1,0,0.2c-0.1,0.1-0.1,0-0.2,0
		c-0.2-0.2-0.3-0.6-0.1-0.9c0,0,0.1-0.1,0.1-0.1c0.3-0.3,0.3-0.4,0-0.7c0-0.1-0.1-0.1,0-0.2c0.1-0.1,0.1,0,0.2,0
		C11.6,6.3,11.7,6.5,11.7,6.6z"/>
	<path class="st0" d="M11.7,11.3c0.3-0.1,0.6-0.2,0.9-0.4c0.7-0.5,1.2-1.1,1.4-1.9c0-0.2,0-0.3-0.2-0.2c-0.1,0-0.2,0-0.3,0
		c-0.1,0-0.2,0-0.2-0.1c0-0.1,0-0.2,0.1-0.2c0,0,0.1,0,0.1-0.1c0-0.1-0.1-0.1-0.1-0.1c-0.1,0-0.1,0-0.2,0c-0.9,0-1.7,0-2.6,0
		c-0.3,0-0.6,0-0.8,0c-0.6,0-1.2,0-1.8,0c-0.1,0-0.3,0-0.1,0.2c0.1,0.1,0,0.2-0.1,0.2c-0.3,0-0.6,0-0.9,0c-0.1,0-0.2,0-0.1,0.1
		c0,0.2,0,0.3,0.1,0.4c0.3,0.9,0.9,1.4,1.7,1.8c0.1,0.1,0.2,0.1,0.1,0.3c-0.4,1.8-0.8,3.6-1.2,5.5c0,0.1,0,0.3,0.1,0.3
		c0.2,0,0.2-0.1,0.3-0.2c0.2-1.1,0.5-2.2,0.7-3.3c0-0.1,0-0.2,0.2-0.2c0.4,0,0.9,0,1.3,0c0.1,0,0.2,0,0.2,0.2c0,0.4,0,0.8,0,1.2
		c0,0.1,0,0.3,0.2,0.3c0.2,0,0.2-0.2,0.2-0.3c0-0.4,0-0.8,0-1.3c0-0.1,0-0.2,0.1-0.2c0.3,0,0.6,0,1,0c0.1,0,0.2,0,0.3,0.2
		c0.4,1.1,0.9,2.3,1.3,3.4c0.1,0.1,0.1,0.4,0.3,0.3c0.2-0.1,0.1-0.3,0-0.4c-0.7-1.7-1.3-3.5-2-5.2C11.5,11.4,11.5,11.3,11.7,11.3z
		 M8.6,13.1c0.1-0.6,0.2-1.1,0.4-1.6c0-0.1,0.1-0.1,0.1-0.1c0.3,0.1,0.6,0.1,0.9,0.1c0.1,0,0.2,0.1,0.1,0.2c0,0.2,0,0.4,0,0.5
		c0,0.2-0.1,0.3-0.2,0.3C9.5,12.7,9.1,12.9,8.6,13.1z M9.8,13.2c-0.3,0-0.6,0-0.9,0c0.4-0.2,0.8-0.4,1.3-0.5c0,0,0,0,0,0
		C10.2,13.1,10.2,13.1,9.8,13.2z M11.4,13.2c-0.2,0-0.5,0-0.7,0c-0.1,0-0.2,0-0.2-0.2c0-0.1,0-0.2,0-0.3
		C10.8,12.8,11.1,12.9,11.4,13.2C11.5,13.1,11.4,13.1,11.4,13.2z M11.7,13c-0.4-0.2-0.7-0.3-1.1-0.5c-0.1,0-0.1-0.1-0.1-0.2
		c0-0.2,0-0.5,0-0.7c0-0.1,0-0.1,0.1-0.1c0.1,0,0.3,0,0.4,0c0.1,0,0.1,0,0.1,0.1C11.3,12,11.5,12.4,11.7,13z"/>
	<path class="st0" d="M12.3,4.3c-0.2-0.2-0.4-0.3-0.6-0.4c-1-0.5-1.9-0.5-2.9-0.1c-0.1,0-0.3,0.2-0.4,0.1C8.2,3.8,8.1,3.6,8,3.5
		c-0.2-0.2-0.3-0.2-0.5,0C7.3,3.6,7.1,3.7,7,3.9C6.5,4.2,6.5,4.3,6.9,4.7C7,4.8,7,4.9,6.9,5C6.4,5.6,6.1,6.3,6.1,6.9
		c0,0.7,0.2,1.2,0.5,1.6c0.1,0.1,0.1,0.1,0.3,0c0.9-0.7,1.7-1.3,2.6-2c0.1,0,0.1-0.1,0.2-0.1c0.1,0.1,0.1,0.2,0,0.3
		C9.6,6.9,9.5,7,9.4,7.1c-0.2,0.3-0.2,0.5,0,0.8C9.4,8,9.5,8.1,9.6,8c0.1-0.1,0-0.1,0-0.2c-0.2-0.2-0.2-0.3,0-0.6
		C9.6,7.1,9.7,7.1,9.8,7c0.1-0.2,0.2-0.3,0.1-0.5c-0.1-0.1,0-0.2,0.1-0.3c0.8-0.6,1.5-1.2,2.3-1.7C12.3,4.4,12.4,4.4,12.3,4.3z
		 M7.8,4.2C7.6,4.3,7.5,4.4,7.3,4.5c0,0-0.1,0-0.1,0.1C7.1,4.5,7.1,4.4,7,4.3C6.9,4.2,7,4.2,7.1,4.2c0.2-0.1,0.4-0.3,0.5-0.4
		c0.1-0.1,0.2-0.1,0.3,0C8,4,8,4,7.8,4.2z"/>
</g>
</svg>
