<?xml version="1.0" encoding="utf-8"?>
<!-- Generator: Adobe Illustrator 22.0.0, SVG Export Plug-In . SVG Version: 6.00 Build 0)  -->
<svg version="1.1" id="Capa_1" xmlns="http://www.w3.org/2000/svg" xmlns:xlink="http://www.w3.org/1999/xlink" x="0px" y="0px"
	 viewBox="0 0 20 32.5" style="enable-background:new 0 0 20 32.5;" xml:space="preserve" width="30px" height="42px">
<style type="text/css">
	.st0{fill:#3B3B3B;}
	.st1{fill:#EAEAEA;}
</style>
<title>map icon fyldt rød (mini)</title>
<path class="st0" d="M10,0.2c-5.4,0-9.8,4.5-9.7,10c0,1.5,0.3,2.9,0.9,4.3L10,32.2l8.7-17.4c2.4-4.9,0.5-11-4.3-13.5
	C13,0.6,11.5,0.3,10,0.2z"/>
<ellipse class="st1" cx="10" cy="10.3" rx="8.9" ry="9.1"/>
<g>
	<path class="st0" d="M14.3,5.4c0.1,0,0.1,0.1,0.2,0.1c0.1,0.2,0.3,0.3,0.4,0.5c0.1,0.1,0.1,0.3,0.2,0.4c0,0.2,0.1,0.5,0.1,0.7
		c0,0.1,0,0.2,0,0.3c0,0.3,0,0.7,0,1c0,0.1,0,0.2,0,0.3c0,0.2,0.1,0.5-0.1,0.6c-0.1,0.1-0.4,0-0.6,0c-0.1,0.1-0.2,0-0.2-0.2
		c0-0.3,0-0.6,0-1c0-0.1,0-0.2,0-0.4c0-0.3,0-0.6,0-0.9c0-0.1,0-0.2,0-0.4c-0.1-0.2-0.2-0.5-0.4-0.6c-0.1-0.1-0.2-0.1-0.2-0.1
		c-0.3-0.1-0.5-0.1-0.8-0.1c-0.1,0-0.2,0-0.3,0c-0.3,0-0.6,0-1,0c-0.1,0-0.2,0-0.4,0c-0.3,0-0.6,0-1,0c-0.1,0-0.2,0-0.4,0
		c-0.3,0-0.6,0-1,0c-0.1,0-0.2,0-0.4,0c-0.3,0-0.6,0-1,0c-0.1,0-0.2,0-0.3,0c-0.1,0-0.3,0-0.4,0C6.1,5.9,5.7,6.3,5.7,7
		c0,0.1,0,0.2,0,0.4c0,0.1,0,0.2,0,0.3c0,0.3,0,0.6,0,1c0,0.1,0,0.2,0,0.4c0,0.5-0.1,0.5-0.5,0.4c-0.1,0-0.2,0-0.3,0
		c0-0.3,0-0.6,0-0.9c0-0.1,0-0.2,0-0.3c0-0.3,0-0.7,0-1c0-0.1,0-0.2,0-0.3c0.2-1,0.6-1.5,1.7-1.7c0.1,0,0.2,0,0.3,0c0.3,0,0.7,0,1,0
		c0.1,0,0.2,0,0.3,0c0.3,0,0.7,0,1,0c0.1,0,0.2,0,0.3,0c0.3,0,0.7,0,1,0c0.1,0,0.2,0,0.3,0c0.3,0,0.7,0,1,0c0.1,0,0.2,0,0.3,0
		c0.3,0,0.7,0,1,0c0.1,0,0.2,0,0.3,0C13.8,5.2,14.1,5.3,14.3,5.4z"/>
	<path class="st0" d="M4.5,15.4c-0.1,0-0.2,0-0.3,0c0-0.3,0-0.7,0-1c0-0.1,0-0.2,0-0.3c0-0.3,0-0.7,0-1c0-0.1,0-0.2,0-0.3
		c0-0.3,0-0.7,0-1c0-0.1,0-0.2,0-0.3c0-0.3,0-0.7,0-1l0,0c0.3-0.2,0.7-0.1,1-0.1c0.1,0,0.2,0,0.4,0c0.3,0,0.6,0,1,0
		c0.1,0,0.2,0,0.4,0c0.3,0,0.6,0,1,0c0.1,0,0.2,0,0.4,0c0.3,0,0.6,0,1,0c0.1,0,0.2,0,0.4,0c0.3,0,0.6,0,1,0c0.1,0,0.2,0,0.4,0
		c0.3,0,0.6,0,1,0c0.1,0,0.2,0,0.4,0c0.3,0,0.7,0,1,0c0.1,0,0.3,0,0.4,0.1c0.3,0,0.7,0,1,0c0.1,0,0.2,0,0.3,0
		c0.3,0.1,0.6-0.1,0.9,0.1c0,0.1,0,0.2,0,0.3c0,0.3,0,0.7,0,1c0,0.1,0,0.2,0,0.3c0,0.3,0,0.7,0,1c0,0.1,0,0.2,0,0.3c0,0.3,0,0.7,0,1
		c0,0.1,0,0.2,0,0.3c0,0.6,0,0.6-0.6,0.6c-0.1,0-0.2,0-0.3,0c-0.3,0-0.4-0.3-0.6-0.4c0,0-0.1-0.1-0.1-0.1c-0.2-0.2-0.3-0.4-0.6-0.6
		c0,0-0.1-0.1-0.1-0.1C13.3,13.9,13,14,12.6,14c-0.1,0-0.2,0-0.3,0c-0.3,0-0.7,0-1,0c-0.1,0-0.2,0-0.3,0c-0.3,0-0.7,0-1,0
		c-0.1,0-0.2,0-0.3,0c-0.3,0-0.7,0-1,0c-0.1,0-0.2,0-0.3,0c-0.3,0-0.7,0-1,0c-0.2,0-0.4,0-0.5,0.2c-0.3,0.3-0.7,0.6-1,1
		c-0.2,0.2-0.5,0.4-0.8,0.3C4.8,15.4,4.7,15.4,4.5,15.4z"/>
	<path class="st0" d="M9.2,9.4c-0.1,0-0.2,0-0.3,0c-0.3,0-0.7,0-1,0c-0.1,0-0.2,0-0.3,0c-0.3,0-0.7,0-1,0c-0.1,0-0.2,0-0.2-0.1
		c0.1-0.6,0.5-0.9,1.1-1.1c0.1,0,0.2,0,0.3,0c0.3,0,0.7,0,1,0c0.1,0,0.3,0,0.4,0.1c0.2,0.1,0.3,0.2,0.5,0.3c0.1,0.1,0.1,0.1,0.2,0.2
		C10,9.4,10,9.4,9.4,9.4C9.3,9.4,9.2,9.4,9.2,9.4z"/>
	<path class="st0" d="M11.8,9.4c-0.1,0-0.2,0-0.3,0c-0.3,0-0.7,0-1,0c-0.2,0-0.3,0-0.3-0.3c0.2-0.5,0.6-0.8,1.1-0.9
		c0.1,0,0.2,0,0.3,0c0.3,0,0.7,0,1,0c0.1,0,0.2,0,0.3,0.1c0.2,0.1,0.4,0.2,0.6,0.4c0,0.1,0.1,0.1,0.1,0.2c0.2,0.5,0.2,0.5-0.5,0.5
		c-0.1,0-0.2,0-0.3,0C12.5,9.4,12.2,9.4,11.8,9.4z"/>
</g>
</svg>
