<?xml version="1.0" encoding="utf-8"?>
<!-- Generator: Adobe Illustrator 22.0.0, SVG Export Plug-In . SVG Version: 6.00 Build 0)  -->
<svg version="1.1" id="Capa_1" xmlns="http://www.w3.org/2000/svg" xmlns:xlink="http://www.w3.org/1999/xlink" x="0px" y="0px"
	 viewBox="0 0 30 42" style="enable-background:new 0 0 30 42;" xml:space="preserve" width="30px" height="42px">
<style type="text/css">
	.st0{fill:#3B3B3B;}
	.st1{fill:#EAEAEA;}
	.st2{fill:#383838;}
</style>
<title>map icon fyldt rød (mini)</title>
<path class="st0" d="M15,0.3C8,0.3,2.3,6.1,2.5,13.2c0,1.9,0.4,3.7,1.2,5.6L15,41.6l11.2-22.5c3.1-6.3,0.6-14.2-5.6-17.4
	C18.9,0.8,16.9,0.4,15,0.3z"/>
<ellipse class="st1" cx="15" cy="13.3" rx="11.5" ry="11.8"/>
<g>
	<path class="st2" d="M14.5,8.4c0.3,0,0.5,0,0.6,0.1c0.8,0.3,1.4,0.6,2.2,1c1,0.5,1.2,1.9,0.4,2.8c-0.1,0.1-0.1,0.3,0,0.5
		c0.6,0.9,0.6,1.9,0,2.8c-0.6,0.8-1.7,1.2-2.7,0.8c-0.3-0.1-0.4-0.1-0.5,0c-0.6,0.3-1.6,0-2.1-0.8c-0.1-0.1-0.4-0.3-0.5-0.3
		c-1-0.3-1.6-0.9-1.7-1.9s0.3-1.9,1.2-2.5c0.1-0.1,0.3-0.3,0.4-0.4C11.9,9.3,13.1,8.4,14.5,8.4z"/>
	<path class="st2" d="M19.9,6.8c0,0,0.3,0,0.4,0c0.9,0.3,1.8,0.8,2.6,1.2c0.9,0.5,1,1.9,0.4,2.7c-0.1,0.3-0.1,0.3,0,0.5
		c0.6,0.9,0.6,1.9,0,2.8c-0.6,0.8-1.7,1.2-2.7,0.8c-0.3-0.1-0.4-0.1-0.6,0C19.8,15,19.5,15,19.4,15c-0.3,0-0.4,0-0.4-0.4
		c0.1-0.6,0-1.2-0.3-1.8c-0.1-0.1-0.1-0.4,0-0.5c0.6-1.4,0.1-3-1.2-3.6c-0.4-0.1-0.3-0.3-0.1-0.5C18,7.4,18.9,6.8,19.9,6.8z"/>
	<path class="st2" d="M12.4,8.3c-0.8,0.5-1.3,1.3-1.4,2.2c0,0.1-0.1,0.1-0.3,0.3c-1.8,1.3-1.9,3.5-0.3,4.9c0,0,0,0,0,0.1
		c-0.6,0.3-1.6,0-1.9-0.6C8.4,15,8.3,14.9,8,14.7c-0.9-0.3-1.6-1-1.7-1.9c-0.1-1,0.4-1.9,1.2-2.3c0.3-0.1,0.4-0.3,0.4-0.5
		C8.3,7.8,10.7,7,12.4,8.3z"/>
	<path class="st2" d="M12,17.7c0,0.3,0,0.5,0,0.8c0,0.3,0,0.4-0.4,0.4c-0.5,0-1,0-1.6,0c-0.3,0-0.4,0-0.4-0.3c0-0.6,0-1.2,0-1.8
		c0-0.1,0-0.3,0.1-0.3c0.5,0.1,1-0.1,1.6-0.3c0.4-0.1,0.5,0,0.6,0.4C12,17.1,12,17.3,12,17.7z"/>
	<path class="st2" d="M15.8,18.5c0,0.4,0.1,0.8,0,1s-0.6,0.1-1,0.1c-0.4,0-0.9,0.1-1,0c-0.3-0.3,0-0.8-0.1-1c0-0.4-0.1-0.8,0-1
		s0.6,0,0.9-0.1c0.3-0.1,0.5-0.1,0.8-0.1c0.5,0,0.6,0.3,0.5,0.6C15.8,18.1,15.8,18.2,15.8,18.5L15.8,18.5z"/>
	<path class="st2" d="M18.9,16.9c0-0.4-0.1-0.8,0-1c0.1-0.3,0.6,0,0.9-0.1c0.1-0.1,0.4-0.1,0.5-0.1c0.8,0.1,0.8,0.1,0.8,0.9
		c0,0.4,0,0.8,0,1.3c0,0.3,0,0.4-0.3,0.4c-0.5,0-1.2,0-1.7,0c-0.3,0-0.3-0.1-0.3-0.3C18.9,17.4,18.9,17.2,18.9,16.9L18.9,16.9z"/>
</g>
</svg>
