<?xml version="1.0" encoding="utf-8"?>
<!-- Generator: Adobe Illustrator 22.0.0, SVG Export Plug-In . SVG Version: 6.00 Build 0)  -->
<svg version="1.1" id="Capa_1" xmlns="http://www.w3.org/2000/svg" xmlns:xlink="http://www.w3.org/1999/xlink" x="0px" y="0px"
	 viewBox="0 0 20 32.5" style="enable-background:new 0 0 20 32.5;" xml:space="preserve" width="30px" height="42px">
<style type="text/css">
	.st0{fill:#3B3B3B;}
	.st1{fill:#EAEAEA;}
</style>
<title>map icon fyldt rød (mini)</title>
<path class="st0" d="M10,0.2c-5.4,0-9.8,4.5-9.7,10c0,1.5,0.3,2.9,0.9,4.3L10,32.2l8.7-17.4c2.4-4.9,0.5-11-4.3-13.5
	C13,0.6,11.5,0.3,10,0.2z"/>
<ellipse class="st1" cx="10" cy="10.3" rx="8.9" ry="9.1"/>
<g>
	<path class="st0" d="M6.6,13.1c0-1,0.1-2,0.1-3c0-0.2,0-0.3-0.2-0.4C5.6,9.2,5.1,8.4,4.9,7.4c-0.2-1.1,0-2.2,0.4-3.3
		c0.1-0.2,0.2-0.4,0.3-0.6c0.1-0.1,0.2-0.2,0.4-0.1c0.2,0.1,0.3,0.2,0.3,0.4c0,0.4,0,0.9,0,1.3c0,0.5,0,1,0,1.4
		c0,0.2,0.1,0.3,0.2,0.4C6.8,7,7,6.8,7,6.5C7,5.7,7,4.8,7,4c0-0.4,0.2-0.6,0.5-0.6C7.8,3.4,8,3.6,8,3.9c0,0.8,0,1.7,0,2.5
		c0,0,0,0.1,0,0.1c0,0.2,0.1,0.4,0.3,0.4c0.2,0,0.3-0.1,0.3-0.4c0-0.5,0-1.1,0-1.6c0-0.4,0-0.7,0-1.1c0-0.2,0.1-0.4,0.3-0.5
		c0.2-0.1,0.4,0.1,0.5,0.2c0.3,0.5,0.5,1,0.6,1.6c0.2,0.8,0.2,1.6,0,2.5c-0.2,0.9-0.7,1.6-1.5,2C8.4,9.7,8.3,9.8,8.3,10
		c0.1,1.9,0.1,3.7,0.2,5.6c0,0.2,0,0.5,0,0.7c-0.1,0.5-0.5,0.9-1.1,0.8c-0.5,0-0.9-0.5-0.9-1c0-0.7,0-1.3,0.1-2
		C6.6,13.8,6.6,13.4,6.6,13.1C6.6,13.1,6.6,13.1,6.6,13.1z"/>
	<path class="st0" d="M13.6,10c0,1.4,0,2.7,0,4.1c0,0.7,0,1.4,0,2c0,0.6-0.4,1-0.9,1c-0.5,0-0.9-0.4-0.9-1c0-1.6,0.1-3.2,0.1-4.8
		c0-0.3-0.1-0.4-0.3-0.6c-0.5-0.3-0.8-0.8-0.9-1.3c-0.3-2.2,0.4-4,1.8-5.7c0.1-0.2,0.3-0.3,0.5-0.4c0.2-0.1,0.4,0,0.4,0.3
		c0,0.4,0,0.9,0,1.3c0,0.7,0,1.5,0,2.2c0,0.8,0,1.6,0,2.4C13.6,9.7,13.6,9.9,13.6,10C13.6,10,13.6,10,13.6,10z"/>
</g>
</svg>
