<?xml version="1.0" encoding="utf-8"?>
<!-- Generator: Adobe Illustrator 22.0.0, SVG Export Plug-In . SVG Version: 6.00 Build 0)  -->
<svg version="1.1" id="Capa_1" xmlns="http://www.w3.org/2000/svg" xmlns:xlink="http://www.w3.org/1999/xlink" x="0px" y="0px"
	 viewBox="0 0 20 32.5" style="enable-background:new 0 0 20 32.5;" xml:space="preserve" width="30px" height="42px">
<style type="text/css">
	.st0{fill:#FFC80A;}
	.st1{fill:#FEFEFE;}
</style>
<title>map icon fyldt rød (mini)</title>
<path class="st0" d="M10,0.2c-5.4,0-9.8,4.5-9.8,10c0,1.5,0.3,2.9,0.9,4.3l8.8,17.7l8.8-17.4c2.5-5,0.5-10.9-4.3-13.5
	C13,0.7,11.6,0.2,10,0.2z"/>
<path class="st1" d="M10.1,15.2C9,15.2,8,15.2,7,15c-1.8-0.4-2.7-1.4-3-3.3C3.7,9.6,3.9,7.6,4.3,5.6c0-0.2,0.2-0.3,0.3-0.3
	C5,5.4,5.3,5.5,5.7,5.5C6,5.5,6.1,5.6,6,5.9C5.9,6.5,5.8,7.2,5.7,7.8C5.7,9,5.6,10.2,5.8,11.4c0.2,1,0.7,1.6,1.7,1.8
	c1.6,0.3,3.2,0.3,4.8,0c1.1-0.2,1.6-0.8,1.8-1.9c0.2-1.3,0.2-2.6,0-3.9c-0.1-0.5-0.2-1-0.2-1.4c-0.1-0.3,0-0.4,0.3-0.4
	c0.4-0.1,0.7-0.1,1.1-0.2c0.2,0,0.3,0.1,0.3,0.3c0.4,1.9,0.6,3.8,0.4,5.7c-0.1,0.8-0.2,1.7-0.7,2.4c-0.7,0.8-1.6,1.2-2.5,1.3
	C11.9,15.2,11,15.2,10.1,15.2z"/>
</svg>
