<svg xmlns="http://www.w3.org/2000/svg" viewBox="7634 8351 104.977 98.387">
  <defs>
    <style>
      .cls-1 {
        fill: #ffc80a;
      }
    </style>
  </defs>
  <g id="design" transform="translate(7634 8351)">
    <path id="Path_48" data-name="Path 48" class="cls-1" d="M.7,25.934a8.841,8.841,0,0,1,2.35-4.342,7.048,7.048,0,0,1,4.9-1.992H83.4a2.75,2.75,0,0,1,.562.051,42.746,42.746,0,0,0-3.372,4.291c-1.124,1.89-2.605,2.3-4.7,2.3-21.71-.1-43.421-.051-65.08-.051H9.282c-1.533,0-1.992.46-1.992,2.043V76.712c0,1.533.46,1.941,1.941,1.941H90.2c1.992,0,2.35-.358,2.35-2.4V49.28a2.425,2.425,0,0,1,.613-1.737,94.307,94.307,0,0,0,5.824-8.173c.307.255.153.511.153.766V87.49a7.46,7.46,0,0,1-7.611,7.56H60.672c-1.277,0-1.277.051-1.022,1.328.664,3.32,3.372,5.772,7.152,6.437a10.569,10.569,0,0,1,1.124.2c.153,0,.255.051.409.051,1.175.358,1.635,1.584,1.328,3.576-.153.971-.817,1.481-1.992,1.481H32.321c-1.43,0-1.992-.562-1.992-1.992V104.91a1.866,1.866,0,0,1,1.737-1.941,12.48,12.48,0,0,0,4.649-1.533,7.635,7.635,0,0,0,3.678-5.313c.153-.817.1-1.175-.971-1.175C29.256,95,19.141,95,8.976,95c-4.342,0-6.794-1.89-8.02-6.028,0-.051-.1-.1-.153-.153Q.649,57.479.7,25.934Z" transform="translate(-0.7 -9.741)"/>
    <path id="Path_49" data-name="Path 49" class="cls-1" d="M180.351,5.051C177.9,15.37,172.075,24,166.558,32.789c-.358.562-.715.613-1.328.409a21.549,21.549,0,0,1-11.6-8.122.817.817,0,0,1-.051-1.175c5.057-6.947,10.268-13.742,16.653-19.514A19.506,19.506,0,0,1,176.673.3h1.635a2.465,2.465,0,0,1,2.043,2.452Z" transform="translate(-75.374 -0.3)"/>
    <path id="Path_50" data-name="Path 50" class="cls-1" d="M96.171,45.351c-.919,1.635-1.89,3.116-2.605,4.7a20.572,20.572,0,0,0-1.941,6.232c-.051.613-.409.868-.971,1.073-2.452,1.073-4.955,1.073-7.509,1.073-11.7-.051-23.345,0-35.043,0-1.941,0-2.4-.46-2.4-2.4V47.19c0-1.328.562-1.89,1.839-1.89H95.813A1.348,1.348,0,0,1,96.171,45.351Z" transform="translate(-22.712 -22.312)"/>
    <path id="Path_51" data-name="Path 51" class="cls-1" d="M131.2,55.3a33.459,33.459,0,0,0,4.546,4.751,21.509,21.509,0,0,0,7.1,3.525c.562.2.766.307.255.817a21.558,21.558,0,0,1-7.969,5.364c-.664.255-.715.409-.409,1.022a9.005,9.005,0,0,1,.358,7.356c-2.146,6.488-9.348,11.6-16.091,11.341a12.406,12.406,0,0,1-4.9-1.226c-1.175-.562-1.277-1.481-.255-2.3a7.045,7.045,0,0,0,3.116-4.5,13.185,13.185,0,0,0-.051-3.474c-.613-5.568,2.248-10.063,7.254-11.6a9.271,9.271,0,0,1,3.116-.511c.971.051,1.328-.255,1.277-1.328a17.039,17.039,0,0,1,2.35-8.889A.736.736,0,0,0,131.2,55.3Z" transform="translate(-55.695 -27.204)"/>
    <path id="Path_52" data-name="Path 52" class="cls-1" d="M62.1,89v9.3c0,1.481-.562,2.043-1.992,2.043H47.692c-1.43,0-1.992-.562-1.992-1.941V79.341c0-1.379.562-1.941,1.89-1.941H60.208c1.328,0,1.89.562,1.89,1.941Z" transform="translate(-22.712 -38.015)"/>
    <path id="Path_53" data-name="Path 53" class="cls-1" d="M102.016,77.351a11.6,11.6,0,0,0-1.941,2.81.752.752,0,0,1-.817.46H85.107c-.766,0-1.022-.358-1.022-1.073-.051-2.248-.1-2.248,2.094-2.248C91.441,77.351,96.6,77.351,102.016,77.351Z" transform="translate(-41.482 -37.966)"/>
    <path id="Path_54" data-name="Path 54" class="cls-1" d="M98.693,90.151c-.051.358-.1.664-.153.971-.153.766.153,1.839-.409,2.2s-1.533.1-2.3.1H85.514c-1.226,0-1.328-.1-1.328-1.379v-.613c-.1-.971.307-1.328,1.277-1.328,3.372.051,6.743,0,10.115,0C96.6,90.151,97.62,90.151,98.693,90.151Z" transform="translate(-41.531 -44.227)"/>
    <path id="Path_55" data-name="Path 55" class="cls-1" d="M91.476,103.051c2.043,0,4.087.051,6.13,0,.766,0,.92.255.868.92a2.993,2.993,0,0,1-2.452,2.35H85.141c-.715,0-1.073-.255-1.073-1.022-.1-2.248-.1-2.3,2.146-2.3C88,103.051,89.739,103.051,91.476,103.051Z" transform="translate(-41.465 -50.537)"/>
    <path id="Path_56" data-name="Path 56" class="cls-1" d="M95.219,119.22H85.207c-.715,0-1.022-.358-1.022-1.073-.051-2.248-.1-2.248,2.094-2.248h7.56c.562,0,.971,0,.817.766A6.8,6.8,0,0,0,95.219,119.22Z" transform="translate(-41.531 -56.847)"/>
    <path id="Path_57" data-name="Path 57" class="cls-1" d="M97.2,147.872a3.7,3.7,0,0,1-3.576,3.627,3.6,3.6,0,0,1-.051-7.2A3.564,3.564,0,0,1,97.2,147.872Z" transform="translate(-44.382 -70.735)"/>
  </g>
</svg>
