<svg xmlns="http://www.w3.org/2000/svg" viewBox="837.17 7820.445 20.83 19.555">
  <defs>
    <style>
      .cls-1 {
        fill: #95989a;
      }
    </style>
  </defs>
  <g id="Group_66" data-name="Group 66" transform="translate(837.17 7805.445)">
    <path id="Path_40" data-name="Path 40" class="cls-1" d="M20.405,15H.425A.425.425,0,0,0,0,15.425v1.7a.425.425,0,0,0,.425.425H.85V29.879a.425.425,0,0,0,.425.425H9.99v3.4H9.14v.85H11.69V33.7h-.85V30.3h8.715a.425.425,0,0,0,.425-.425V17.551h.425a.425.425,0,0,0,.425-.425v-1.7A.425.425,0,0,0,20.405,15ZM19.13,29.454H1.7v-11.9H19.13ZM19.98,16.7H.85v-.85H19.98Z"/>
    <rect id="Rectangle_28" data-name="Rectangle 28" class="cls-1" width="2.551" height="0.85" transform="translate(2.976 19.251)"/>
    <rect id="Rectangle_29" data-name="Rectangle 29" class="cls-1" width="7.227" height="0.85" transform="translate(2.976 20.951)"/>
    <rect id="Rectangle_30" data-name="Rectangle 30" class="cls-1" width="14.879" height="0.85" transform="translate(2.976 23.077)"/>
    <rect id="Rectangle_31" data-name="Rectangle 31" class="cls-1" width="14.879" height="0.85" transform="translate(2.976 24.777)"/>
    <rect id="Rectangle_32" data-name="Rectangle 32" class="cls-1" width="11.053" height="0.85" transform="translate(2.976 26.478)"/>
    <rect id="Rectangle_33" data-name="Rectangle 33" class="cls-1" width="1.7" height="0.85" transform="translate(16.154 26.478)"/>
    <rect id="Rectangle_34" data-name="Rectangle 34" class="cls-1" width="1.275" height="0.85" transform="translate(16.792 18.613)"/>
    <rect id="Rectangle_35" data-name="Rectangle 35" class="cls-1" width="1.275" height="0.85" transform="translate(14.879 18.613)"/>
    <rect id="Rectangle_36" data-name="Rectangle 36" class="cls-1" width="1.275" height="0.85" transform="translate(16.792 19.889)"/>
  </g>
</svg>
