<svg xmlns="http://www.w3.org/2000/svg" viewBox="7958 7864 110.178 98.541">
  <defs>
    <style>
      .cls-1 {
        fill: #ffc80a;
      }
    </style>
  </defs>
  <g id="technical" transform="translate(7958 7864)">
    <path id="Path_62" data-name="Path 62" class="cls-1" d="M65.116,106.146c-2.248-1.481-4.6-2.759-6.947-4.138a.8.8,0,0,1-.409-.766c0-2.3-.051-4.6-.1-6.845a.693.693,0,0,1,.358-.664c2.3-1.481,4.546-2.963,6.845-4.444.358-.255.46-.46.306-.868-.817-2.248-1.788-4.444-2.81-6.59a.8.8,0,0,0-1.124-.511c-2.554.562-5.108,1.277-7.663,1.941a.876.876,0,0,1-.971-.255,43.123,43.123,0,0,0-4.955-4.7.414.414,0,0,1-.153-.511c.613-2.759,1.175-5.466,1.788-8.224.1-.46.051-.715-.46-.92-2.35-.92-4.751-1.839-7.1-2.81-.306-.153-.46,0-.613.255-1.43,2.452-2.861,4.853-4.24,7.3a.684.684,0,0,1-.664.409c-2.3,0-4.546.051-6.845.1a.877.877,0,0,1-.817-.409c-1.43-2.248-2.861-4.444-4.24-6.692-.306-.511-.613-.664-1.124-.409-.1.051-.255.1-.358.153-2.043.817-4.087,1.788-6.13,2.656-.562.255-.613.511-.511,1.073.562,2.656,1.328,5.313,1.992,7.918a.632.632,0,0,1-.2.715c-.613.613-1.277,1.226-1.89,1.839a35.09,35.09,0,0,0-2.963,3.218c-.153.255-.358.153-.511.1C9.844,83.516,7.085,82.9,4.327,82.29c-.409-.1-.562,0-.715.358-.664,1.43-1.226,2.861-1.788,4.291C1.466,87.91,1.058,88.88.7,89.851v.358a2.143,2.143,0,0,0,.92.715c2.094,1.277,4.189,2.5,6.283,3.729.358.2.562.409.511.817-.1,2.043.1,4.036.1,6.079A1.631,1.631,0,0,1,7.8,103.03c-.2.153-.358.255-.562.409-1.89,1.328-3.933,2.5-5.772,3.882-.613.46-.664.562-.358,1.277.868,2.094,1.737,4.138,2.605,6.232.409.971.46,1.022,1.533.766,2.554-.613,5.108-1.277,7.611-1.941a.8.8,0,0,1,.971.307,18.412,18.412,0,0,0,1.89,2.094c.766.766,1.635,1.43,2.4,2.2a1.47,1.47,0,0,1,.46,1.533c-.358,1.328-.613,2.759-.868,4.138-.2,1.073-.409,2.146-.562,3.218-.1.766,0,.971.715,1.277l1.839.766a29.222,29.222,0,0,0,5.006,1.788h.358a3.9,3.9,0,0,0,.409-.562c1.277-2.146,2.554-4.291,3.78-6.437a1.44,1.44,0,0,1,1.584-.868,33.919,33.919,0,0,0,6.437-.2c.358-.051.409.2.511.358,1.533,2.35,3.014,4.7,4.6,7a.715.715,0,0,0,.971.307q3.372-1.379,6.59-3.065c.358-.2.511-.409.358-.817-.613-2.3-1.073-4.6-1.788-6.845a2.163,2.163,0,0,1,.715-2.605,27.436,27.436,0,0,0,4.087-4.342c.2-.255.46-.153.664-.1,2.759.562,5.466,1.175,8.224,1.788.46.1.613,0,.766-.409.868-2.248,1.737-4.546,2.554-6.794C65.678,106.657,65.525,106.453,65.116,106.146Zm-31.723,5.159A13.008,13.008,0,1,1,46.164,98.228C46.522,105.329,39.881,111.357,33.393,111.306Z" transform="translate(-0.7 -32.433)"/>
    <path id="Path_63" data-name="Path 63" class="cls-1" d="M140.979,22.926l-5.67-.92c-.255-.051-.511,0-.562-.409a19.9,19.9,0,0,0-1.839-4.751.7.7,0,0,1,.1-.868c1.277-1.686,2.5-3.372,3.78-5.057.2-.307.2-.46-.051-.664-1.379-1.328-2.707-2.707-4.036-4.087-.255-.255-.409-.2-.664-.051-1.533,1.124-3.116,2.146-4.6,3.32a1.388,1.388,0,0,1-1.686.153,29.256,29.256,0,0,0-4.138-1.686.66.66,0,0,1-.46-.613c-.255-1.737-.562-3.525-.817-5.262-.1-.766-.153-1.533-1.175-1.533H118.5a2.492,2.492,0,0,1-.868.051C116.663.5,115.743.6,114.773.5h-.766a1.066,1.066,0,0,0-.664,1.022l-.92,5.67c-.051.255,0,.511-.358.613a21.178,21.178,0,0,0-4.9,1.89.642.642,0,0,1-.664-.1c-1.686-1.277-3.423-2.5-5.108-3.78-.306-.2-.46-.255-.715.051-1.328,1.328-2.656,2.707-4.036,3.985-.255.255-.306.409-.051.715,1.124,1.533,2.146,3.065,3.269,4.546a1.47,1.47,0,0,1,.153,1.788,31.3,31.3,0,0,0-1.686,4.087.6.6,0,0,1-.562.46c-2.043.307-4.036.664-6.079.971-.46.051-.613.307-.664.715-.1,1.737-.1,3.423-.051,5.159,0,.613.255.868.868.971,1.992.307,3.933.664,5.926.971a.439.439,0,0,1,.409.358,22.744,22.744,0,0,0,1.839,4.8.693.693,0,0,1-.051.766c-1.277,1.686-2.5,3.423-3.78,5.108-.2.255-.2.409.051.664,1.379,1.328,2.707,2.707,4.036,4.087.255.255.409.255.664.051,1.481-1.073,3.065-2.146,4.5-3.269a1.641,1.641,0,0,1,1.788-.2,25.16,25.16,0,0,0,3.678,1.481,1.2,1.2,0,0,1,1.022,1.124c.255,1.941.613,3.933.92,5.875.051.2.051.409.358.409,1.788,0,3.576.051,5.415.051.92,0,.92-.051,1.073-.971.307-1.941.664-3.882.971-5.824.051-.255.1-.358.358-.409a22.744,22.744,0,0,0,4.8-1.839.619.619,0,0,1,.766.1c1.686,1.277,3.423,2.5,5.108,3.78.307.2.409.2.664-.051,1.328-1.328,2.656-2.707,4.036-3.985.307-.306.255-.46.051-.766-1.124-1.533-2.2-3.065-3.32-4.6a1.338,1.338,0,0,1-.153-1.43A40.479,40.479,0,0,0,134.7,31.2a.657.657,0,0,1,.613-.511c2.094-.307,4.189-.664,6.283-.971.255-.051.409-.051.409-.358,0-1.788.051-3.576.051-5.415C141.949,23.079,141.949,23.079,140.979,22.926Zm-24.52,13.18a10.143,10.143,0,0,1-9.961-9.961,9.987,9.987,0,1,1,19.974.051A10.178,10.178,0,0,1,116.459,36.105Z" transform="translate(-44.839 -0.5)"/>
    <path id="Path_64" data-name="Path 64" class="cls-1" d="M178.194,113.891c-1.277-.715-2.656-1.277-3.985-1.89a.83.83,0,0,1-.562-.766,16.29,16.29,0,0,0-.409-3.116,1.363,1.363,0,0,1,.46-1.481c1.124-.868,2.2-1.788,3.32-2.656.358-.255.358-.46.153-.817q-.919-1.686-1.992-3.372a.679.679,0,0,0-.868-.358c-1.43.409-2.81.971-4.189,1.481a.7.7,0,0,1-.766-.1,26.09,26.09,0,0,0-3.014-2.3.6.6,0,0,1-.255-.562c.153-1.584.307-3.218.511-4.8.051-.358-.051-.562-.46-.664-1.379-.358-2.707-.715-4.036-1.124-.358-.1-.46,0-.613.306-.613,1.379-1.277,2.81-1.89,4.189a.665.665,0,0,1-.562.46c-1.073.1-2.2.2-3.269.409a1.547,1.547,0,0,1-1.533-.613c-.919-1.073-1.788-2.146-2.656-3.269-.153-.2-.255-.358-.562-.153-1.022.613-2.094,1.175-3.116,1.737-.817.46-.92.817-.613,1.737.46,1.277.919,2.5,1.379,3.78a.649.649,0,0,1-.153.715,13.355,13.355,0,0,0-1.89,2.248,1.7,1.7,0,0,1-2.043.868c-1.277-.153-2.554-.255-3.78-.409-.358-.051-.511.1-.613.409-.358,1.328-.715,2.656-1.124,3.985-.1.409,0,.511.358.664,1.379.613,2.758,1.277,4.189,1.89a.66.66,0,0,1,.46.613,31.6,31.6,0,0,0,.358,3.167,1.6,1.6,0,0,1-.664,1.737c-1.073.817-2.094,1.686-3.116,2.5a.513.513,0,0,0-.153.766c.613,1.175,1.328,2.35,2.043,3.474.255.358.46.409.817.255,1.379-.511,2.81-.971,4.189-1.533.358-.1.511-.1.766.153a13.684,13.684,0,0,0,2.5,2.043,1.131,1.131,0,0,1,.613,1.226c-.153,1.277-.255,2.554-.358,3.525-.051,1.584-.153,1.328.971,1.635,1.124.358,2.248.664,3.372.971a.419.419,0,0,0,.613-.255c.613-1.379,1.277-2.81,1.89-4.189a.777.777,0,0,1,.664-.511c1.073-.1,2.146-.2,3.218-.358a1.454,1.454,0,0,1,1.686.664c.766,1.022,1.584,1.992,2.4,2.963.306.409.562.511,1.022.2,1.073-.664,2.146-1.277,3.269-1.839.409-.2.511-.409.358-.817-.511-1.379-.971-2.759-1.481-4.087a.845.845,0,0,1,.153-1.022c.715-.817,1.379-1.686,2.043-2.554a1.2,1.2,0,0,1,1.277-.562c1.277.153,2.554.358,3.831.409.715,0,.971-.153,1.175-.868l.919-3.372C178.654,114.249,178.5,114.1,178.194,113.891Zm-19.31,4.853c-3.576.511-8.173-3.32-7.663-7.663-.511-4.444,4.087-7.765,7.458-7.714a7.986,7.986,0,0,1,7.867,7.765C166.649,114.862,163.073,119.2,158.884,118.744Z" transform="translate(-68.364 -44.928)"/>
  </g>
</svg>
