<?xml version="1.0" encoding="utf-8"?>
<!-- Generator: Adobe Illustrator 22.0.0, SVG Export Plug-In . SVG Version: 6.00 Build 0)  -->
<svg version="1.1" id="Layer_1" xmlns="http://www.w3.org/2000/svg" xmlns:xlink="http://www.w3.org/1999/xlink" x="0px" y="0px"
	 viewBox="0 0 200 200" style="enable-background:new 0 0 200 200;" xml:space="preserve">
<style type="text/css">
	.st0{fill:#F6F6F6;}
	.st1{fill:#DBDBDB;}
</style>
<rect class="st0" width="200" height="200"/>
<g>
	<g>
		<path class="st1" d="M166,150c-0.7,0-1.3,0.2-1.8,0.7c-0.5,0.5-0.7,1-0.7,1.7c0,0.7,0.2,1.3,0.7,1.7c0.5,0.5,1,0.7,1.8,0.7
			c0.7,0,1.3-0.2,1.8-0.7c0.5-0.5,0.7-1,0.7-1.7c0-0.7-0.2-1.3-0.7-1.7C167.3,150.2,166.7,150,166,150z"/>
		<path class="st1" d="M161.1,132.4c-9.7,0-17.6,7.9-17.6,17.6c0,9.7,7.9,17.6,17.6,17.6s17.6-7.9,17.6-17.6
			C178.6,140.3,170.8,132.4,161.1,132.4z M158.4,157.4h-3.1v-11.6l-3.1,2.7l-1.8-2.1l5-4.2h3V157.4z M171.3,154.6
			c-0.3,0.6-0.7,1.2-1.2,1.6c-0.5,0.5-1.1,0.8-1.8,1.1c-0.7,0.3-1.4,0.4-2.2,0.4c-0.8,0-1.5-0.1-2.2-0.4c-0.7-0.2-1.3-0.6-1.8-1.1
			c-0.5-0.5-0.9-1-1.2-1.6c-0.3-0.6-0.4-1.3-0.4-2.1c0-0.5,0-1,0.2-1.5c0.1-0.5,0.2-0.9,0.4-1.3c0.2-0.4,0.4-0.8,0.6-1.1
			c0.2-0.4,0.5-0.7,0.7-1.1l3.3-5.2h3.9l-3.6,5.4c0.2,0,0.3-0.1,0.5-0.1c0.2,0,0.3,0,0.5,0c0.7,0,1.4,0.1,2,0.4
			c0.6,0.3,1.1,0.6,1.5,1.1c0.4,0.4,0.7,1,1,1.6c0.2,0.6,0.3,1.3,0.3,1.9C171.7,153.3,171.5,154,171.3,154.6z"/>
		<path class="st1" d="M102,46.3c-17.6,0-31.9,14.3-31.9,31.9c0,0.3,0,0.6,0,1v46.4c0,9.3-7.5,16.8-16.8,16.8
			c-9.3,0-16.8-7.5-16.8-16.8l0-90.2c0-9.3,7.5-16.8,16.8-16.8c9.3,0,16.8,7.5,16.8,16.8c0,4.2,3.4,7.6,7.6,7.6s7.6-3.4,7.6-7.6
			c0-17.6-14.3-31.9-31.9-31.9S21.4,17.8,21.4,35.4l0,90.2c0,17.6,14.3,31.9,31.9,31.9s31.9-14.3,31.9-31.9v-20.2
			c4.9,3,10.6,4.8,16.8,4.8c6.2,0,11.9-1.8,16.8-4.8v58.4c0,0.1,0,0.3,0,0.4c0,0.1,0,0.3,0,0.4c0,9.3-7.5,16.8-16.8,16.8
			c-9.3,0-16.8-7.5-16.8-16.8c0-4.2-3.4-7.6-7.6-7.6c-4.2,0-7.6,3.4-7.6,7.6c0,17.6,14.3,31.9,31.9,31.9s31.9-14.3,31.9-31.9
			c0-0.1,0-0.3,0-0.4c0-0.1,0-0.3,0-0.4V77.5c0-0.2,0-0.4,0-0.7C133.2,59.9,119.2,46.3,102,46.3z M102,95c-9.1,0-16.5-7.3-16.8-16.3
			v-1c0.3-9.1,7.7-16.3,16.8-16.3c9.3,0,16.8,7.5,16.8,16.8C118.8,87.5,111.3,95,102,95z"/>
	</g>
	<circle class="st1" cx="161" cy="150" r="17.6"/>
</g>
</svg>
