<svg xmlns="http://www.w3.org/2000/svg" viewBox="-320.9 1834.178 31.881 26.519">
  <defs>
    <style>
      .cls-1 {
        fill: #ffc80a;
      }
    </style>
  </defs>
  <path id="_003-social-media" data-name="003-social-media" class="cls-1" d="M31.375,37.576a12.625,12.625,0,0,1-2.2.741,6.854,6.854,0,0,0,1.809-2.881h0a.359.359,0,0,0-.526-.419h0A12.685,12.685,0,0,1,27.1,36.406a.857.857,0,0,1-.21.026.891.891,0,0,1-.588-.225,6.873,6.873,0,0,0-4.548-1.716,7.349,7.349,0,0,0-2.178.336,6.659,6.659,0,0,0-4.488,4.8,7.332,7.332,0,0,0-.163,2.531.246.246,0,0,1-.062.193.255.255,0,0,1-.19.086h-.024A18.023,18.023,0,0,1,2.261,35.816h0a.359.359,0,0,0-.589.046h0a6.881,6.881,0,0,0,1.118,8.355,6.16,6.16,0,0,1-1.568-.607h0a.359.359,0,0,0-.534.31h0A6.882,6.882,0,0,0,4.7,50.26l-.147,0a6.185,6.185,0,0,1-1.158-.11h0a.359.359,0,0,0-.41.463h0A6.889,6.889,0,0,0,8.43,55.3a12.683,12.683,0,0,1-7.1,2.157H.532a.526.526,0,0,0-.514.4.545.545,0,0,0,.261.6,18.865,18.865,0,0,0,9.48,2.556,19.124,19.124,0,0,0,8.1-1.719,17.889,17.889,0,0,0,5.927-4.442,19.473,19.473,0,0,0,3.629-6.079,19.2,19.2,0,0,0,1.234-6.653v-.1a1.17,1.17,0,0,1,.438-.91,13.585,13.585,0,0,0,2.733-3h0a.359.359,0,0,0-.445-.528Z" transform="translate(-320.9 1799.687)"/>
</svg>
