<svg xmlns="http://www.w3.org/2000/svg" viewBox="-368.6 1833.965 27.651 26.422">
  <defs>
    <style>
      .cls-1 {
        fill: #ffc80a;
      }
    </style>
  </defs>
  <g id="_001-linkedin-logo" data-name="001-linkedin-logo" transform="translate(-368.6 1833.965)">
    <path id="LinkedIn" class="cls-1" d="M27.651,25.757V35.98H21.724V26.442c0-2.4-.857-4.031-3-4.031a3.243,3.243,0,0,0-3.041,2.168,4.055,4.055,0,0,0-.2,1.445V35.98H9.556s.08-16.154,0-17.828h5.928v2.527c-.012.019-.028.039-.039.058h.039v-.058a5.886,5.886,0,0,1,5.342-2.946C24.727,17.733,27.651,20.281,27.651,25.757Zm-24.3-16.2a3.089,3.089,0,1,0-.079,6.162h.04a3.09,3.09,0,1,0,.039-6.162Zm-3,26.422H6.278V18.152H.352Z" transform="translate(0 -9.558)"/>
  </g>
</svg>
