<svg xmlns="http://www.w3.org/2000/svg" viewBox="7311 7864 98.425 98.336">
  <defs>
    <style>
      .cls-1 {
        fill: #ffc80a;
      }
    </style>
  </defs>
  <g id="integration" transform="translate(7311 7864)">
    <path id="Path_58" data-name="Path 58" class="cls-1" d="M82.134,110.03c-5.006,2.912-6.59,5.772-5.926,9.655a9.351,9.351,0,0,0,7.3,7.254c3.525.715,6.385-.92,9.144-5.313,5.772,5.006,6.692,6.59.562,12.107-.613.562-1.175,1.175-1.788,1.788-.868.868-1.737,1.737-1.379,3.065.358,1.481,1.635,1.737,2.963,1.941a4.286,4.286,0,0,1,3.882,3.525,4.726,4.726,0,0,1-2.146,4.853c-2.81,2.043-6.028.92-6.947-2.452a10.751,10.751,0,0,0-.306-1.226c-.664-2.5-2.35-3.116-4.291-1.379-1.788,1.584-3.372,3.372-5.057,5.006-2.043,1.941-4.189,1.941-6.283,0-1.584-1.533-3.116-3.116-4.7-4.649-.868-.868-1.89-1.584-3.167-1.073-1.175.409-1.43,1.481-1.635,2.656-.46,2.81-2.248,4.393-4.5,4.291a5.221,5.221,0,0,1-4.751-4.546c-.2-2.452,1.073-4.087,3.933-4.751,3.423-.817,3.985-2.5,1.533-5.057-1.226-1.277-2.5-2.5-3.78-3.78-3.014-3.065-3.065-4.7-.1-7.714,1.328-1.328,2.656-2.605,3.933-3.985,2.2-2.35,1.635-4.138-1.481-4.8q-4.291-.919-4.138-4.6a5.2,5.2,0,0,1,4.8-4.751c2.35-.1,3.933,1.43,4.5,4.291.613,2.963,2.4,3.627,4.649,1.635,1.635-1.481,3.116-3.116,4.7-4.649,2.35-2.3,4.342-2.248,6.794.051C79.58,108.242,80.806,109.059,82.134,110.03Z" transform="translate(-25.834 -51.973)"/>
    <path id="Path_59" data-name="Path 59" class="cls-1" d="M57.723,29.233c-6.028-5.262-6.794-6.641-.511-12.158.358-.358.715-.715,1.124-1.073,3.32-3.218,3.014-4.5-1.43-5.824-2.248-.664-3.474-2.146-3.372-4.444a5.249,5.249,0,0,1,4.8-4.8,4.239,4.239,0,0,1,4.342,3.525c1.124,4.291,2.5,4.649,5.721,1.43C69.727,4.56,71,3.232,72.384,1.955,74.325.116,76.521.064,78.463,1.9c1.635,1.533,3.116,3.116,4.7,4.649.868.868,1.788,1.635,3.116,1.226s1.584-1.533,1.788-2.81C88.475,2.363,90.212.729,92.408.78a5.225,5.225,0,0,1,4.853,4.444c.307,2.5-1.022,4.189-3.78,4.853-1.226.307-2.605.307-3.014,1.89s.613,2.5,1.584,3.474c1.43,1.43,2.912,2.861,4.291,4.342,1.941,2.094,1.89,3.985-.051,6.079-1.584,1.686-3.269,3.218-4.853,4.9-1.992,2.2-1.328,4.087,1.584,4.649s4.291,2.094,4.189,4.546a5.079,5.079,0,0,1-4.546,4.7c-2.554.2-4.138-1.124-4.751-4.189-.2-1.124-.46-2.2-1.737-2.605a3.028,3.028,0,0,0-3.167,1.124l-4.5,4.5c-2.4,2.35-4.342,2.3-6.794-.051-1.022-.971-2.2-1.89-3.372-2.912,4.649-2.81,6.385-5.721,5.721-9.348a9.257,9.257,0,0,0-7.356-7.407C62.984,23.154,60.073,24.942,57.723,29.233Z" transform="translate(-25.993 -0.549)"/>
    <path id="Path_60" data-name="Path 60" class="cls-1" d="M29,92.886a1.36,1.36,0,0,1-.2.409c-4.853,5.313-6.334,6.488-11.8.409-.562-.613-1.175-1.226-1.788-1.788-2.554-2.452-4.342-1.992-5.108,1.379-.46,2.146-1.584,3.627-3.78,3.882a4.847,4.847,0,0,1-5.006-2.861,4.152,4.152,0,0,1,2.912-6.283c1.43-.306,3.014-.358,3.423-2.094.358-1.686-.971-2.605-1.941-3.627-1.328-1.328-2.656-2.605-3.933-3.985C-.217,76.233-.217,74.19,1.826,72.1c1.533-1.584,3.167-3.065,4.7-4.649.868-.868,1.584-1.839,1.124-3.167C7.241,63.1,6.168,62.8,5.045,62.594,2.235,62.083.651,60.346.754,58.1A5.318,5.318,0,0,1,5.3,53.348c2.452-.2,4.087,1.124,4.751,3.933.307,1.277.409,2.605,1.941,2.963,1.481.358,2.35-.664,3.269-1.533,1.533-1.481,2.963-3.065,4.5-4.5,1.941-1.788,3.933-1.788,5.875,0,1.686,1.584,3.269,3.218,4.9,4.853.817.817,1.686,1.533,2.912,1.175,1.328-.358,1.686-1.43,1.89-2.707.46-2.81,2.2-4.342,4.546-4.189a5.22,5.22,0,0,1,4.7,4.6c.255,2.5-1.124,4.087-3.933,4.7-1.175.255-2.4.358-2.861,1.737-.46,1.43.358,2.4,1.277,3.32,1.584,1.584,3.167,3.065,4.649,4.7,1.89,1.992,1.839,4.036-.051,6.079-1.073,1.175-2.146,2.4-3.269,3.678-3.116-4.8-5.977-6.437-9.6-5.619a9.3,9.3,0,0,0-7.2,7.663C23.128,87.88,25.018,90.894,29,92.886Z" transform="translate(-0.287 -26.145)"/>
    <path id="Path_61" data-name="Path 61" class="cls-1" d="M110.3,68.8c2.707,4.393,5.67,6.028,9.45,5.159a9.218,9.218,0,0,0,7.2-7.918c.358-3.423-1.635-6.437-5.517-8.327a2.339,2.339,0,0,1,.409-.664c4.036-4.036,5.517-6.9,11.341-.358.715.817,1.533,1.584,2.35,2.35.868.817,1.788,1.635,3.116,1.124a2.809,2.809,0,0,0,1.686-2.605c.255-2.146,1.379-3.729,3.525-4.087a4.771,4.771,0,0,1,5.006,2.35,4.248,4.248,0,0,1-2.656,6.743c-1.328.306-2.861.255-3.32,1.89-.562,1.788.817,2.759,1.89,3.882,1.226,1.277,2.554,2.5,3.78,3.78,2.145,2.248,2.145,4.24.051,6.437-1.481,1.533-3.014,3.014-4.5,4.5-.868.868-1.584,1.839-1.226,3.167.358,1.379,1.584,1.635,2.759,1.839,2.81.511,4.342,2.248,4.138,4.546a5.22,5.22,0,0,1-4.649,4.649c-2.4.153-4.138-1.277-4.649-4.087-.2-1.226-.46-2.35-1.788-2.81s-2.248.409-3.116,1.226c-1.584,1.533-3.116,3.167-4.7,4.649-2.043,1.941-3.985,1.941-6.028,0-1.481-1.379-2.861-2.861-4.342-4.291-.971-.92-1.89-2.043-3.474-1.584-1.481.46-1.533,1.788-1.839,3.065-.562,2.656-2.605,4.138-4.9,3.729a5.12,5.12,0,0,1-4.291-5.466c.358-2.35,1.89-3.372,4.138-3.831,3.167-.613,3.729-2.5,1.584-4.8-1.584-1.686-3.269-3.218-4.853-4.9-1.839-1.941-1.839-4.087,0-6.079.92-1.022,1.89-1.941,2.861-2.861A5.353,5.353,0,0,1,110.3,68.8Z" transform="translate(-51.754 -26.116)"/>
  </g>
</svg>
